# xmcd CD database file
#
# Track frame offsets:
#	150
#	13625
#	33522
#	57377
#	76049
#	99931
#	125511
#	149934
#	167214
#	189114
#	206911
#	230545
#	256136
#	276171
#	302813
#	324558
#
# Disc length: 4629 seconds
#
# Revision: 0
# Processed by: cddbd v1.5.1PL0 Copyright (c) Steve Scherf et al.
# Submitted via: freeDB plugin v1.0
#
DISCID=e1121310
DTITLE=Ｖａｒｉｏｕｓ - ＣＤＳ３７
DYEAR=1900
DGENRE=Rock
TTITLE0=ｈｅａｄ−ｓｃｉｓｓｏｒｓ
TTITLE1=この街
TTITLE2=Ｒｉｎｇ
TTITLE3=Ｉｔ　Ｔａｋｅｓ　Ｔｗｏ
TTITLE4=雪の降らない街
TTITLE5=Ｄｅｅｐ　Ｆｒｅｅｚｅ
TTITLE6=ＢＡＣＫ　ＢＬＯＣＫＳ
TTITLE7=スタンドアップ！シスター
TTITLE8=白い花
TTITLE9=Ｍａｋｅ　ｍｙ　ｄａｙ
TTITLE10=Ｍｙ　ｆａｉｔｈ
TTITLE11=ＨＥＲＯ
TTITLE12=ＵＮＳＰＥＡＫＡＢＬＥ
TTITLE13=Ｍｙ　Ｇｉｆｔ　ｔｏ　Ｙｏｕ
TTITLE14=はじまりの合図
TTITLE15=風のない海で抱きしめて
EXTD=
EXTT0=
EXTT1=
EXTT2=
EXTT3=
EXTT4=
EXTT5=
EXTT6=
EXTT7=
EXTT8=
EXTT9=
EXTT10=
EXTT11=
EXTT12=
EXTT13=
EXTT14=
EXTT15=
PLAYORDER=
